<svg width="18" height="19" viewBox="0 0 18 19" fill="none" xmlns="http://www.w3.org/2000/svg">
<path d="M11.5 14.1667V15C11.5 16.3807 10.3807 17.5 9 17.5C7.61929 17.5 6.5 16.3807 6.5 15V14.1667M11.5 14.1667H6.5M11.5 14.1667H14.4921C14.8109 14.1667 14.971 14.1667 15.1001 14.1231C15.3466 14.04 15.5396 13.8464 15.6227 13.5998C15.6664 13.4702 15.6664 13.3096 15.6664 12.9883C15.6664 12.8477 15.6663 12.7774 15.6553 12.7104C15.6345 12.5837 15.5853 12.4636 15.5105 12.3594C15.4709 12.3043 15.4206 12.254 15.3215 12.1549L14.9969 11.8303C14.8922 11.7255 14.8333 11.5835 14.8333 11.4353V8.33334C14.8333 5.11168 12.2217 2.5 9 2.50001C5.77835 2.50002 3.16667 5.11169 3.16667 8.33334V11.4354C3.16667 11.5835 3.10771 11.7255 3.00297 11.8303L2.67839 12.1548C2.57898 12.2542 2.5292 12.3042 2.48959 12.3594C2.41472 12.4637 2.36512 12.5837 2.34434 12.7104C2.33334 12.7774 2.33334 12.8477 2.33334 12.9883C2.33334 13.3096 2.33334 13.4702 2.37705 13.5998C2.46021 13.8464 2.654 14.04 2.90056 14.1231C3.02964 14.1667 3.18918 14.1667 3.50797 14.1667H6.5M14.0155 1.67807C15.1648 2.54416 16.0703 3.69315 16.6437 5.01312M3.98497 1.67807C2.83563 2.54416 1.93017 3.69315 1.35677 5.01312" stroke="white" stroke-width="1.5" stroke-linecap="round" stroke-linejoin="round"/>
</svg>
