<svg width="20" height="20" viewBox="0 0 20 20" fill="none" xmlns="http://www.w3.org/2000/svg">
<path d="M16.6667 4.66676C16.6667 4.20005 16.6663 3.96652 16.5755 3.78826C16.4956 3.63146 16.3686 3.50407 16.2118 3.42417C16.0336 3.33334 15.7997 3.33334 15.333 3.33334H4.66634C4.19963 3.33334 3.9665 3.33334 3.78824 3.42417C3.63144 3.50407 3.50405 3.63146 3.42416 3.78826C3.33333 3.96652 3.33333 4.20005 3.33333 4.66676V5.28114C3.33333 5.48497 3.33333 5.58696 3.35635 5.68286C3.37677 5.76789 3.41052 5.84912 3.45621 5.92368C3.50773 6.00775 3.57992 6.07993 3.72395 6.22397L7.9429 10.4429C8.08702 10.587 8.15869 10.6587 8.21023 10.7428C8.25592 10.8174 8.29013 10.8989 8.31054 10.9839C8.33333 11.0788 8.33333 11.1796 8.33333 11.3793V15.3425C8.33333 16.0569 8.33333 16.4143 8.48378 16.6294C8.61516 16.8172 8.81783 16.9425 9.04459 16.976C9.30428 17.0144 9.62392 16.8548 10.2629 16.5353L10.9295 16.202C11.1971 16.0682 11.3305 16.0011 11.4283 15.9013C11.5147 15.813 11.5808 15.7071 11.6211 15.5903C11.6666 15.4583 11.6667 15.3083 11.6667 15.0092V11.3855C11.6667 11.1817 11.6667 11.0798 11.6897 10.9839C11.7101 10.8989 11.7439 10.8174 11.7895 10.7428C11.8407 10.6593 11.9122 10.5878 12.0544 10.4456L12.0573 10.4429L16.2762 6.22397C16.4204 6.07984 16.492 6.00777 16.5436 5.92368C16.5892 5.84912 16.6235 5.76789 16.6439 5.68286C16.6667 5.58793 16.6667 5.48704 16.6667 5.28734V4.66676Z" stroke="#73868F" stroke-linecap="round" stroke-linejoin="round"/>
</svg>
