<svg width="20" height="20" viewBox="0 0 20 20" fill="none" xmlns="http://www.w3.org/2000/svg">
<path d="M17.8124 9.88894C17.2551 9.42964 16.3743 9.39025 15.7961 10.0107L14.3609 11.5514C14.1754 10.955 13.6184 10.5208 12.9619 10.5208H10.4007C10.2064 10.5208 10.1413 10.4466 9.8037 10.1865C8.51659 9.06442 6.58336 9.068 5.30015 10.1972L4.35876 11.026C3.9356 10.802 3.44147 10.7965 3.01599 11.009L1.93625 11.5488C1.69502 11.6695 1.59739 11.9628 1.71781 12.204L4.64748 18.0633C4.76826 18.3046 5.06153 18.4022 5.30276 18.2818L6.3825 17.7417C6.91472 17.4758 7.21093 16.9328 7.19172 16.3801H12.9618C14.0318 16.3801 15.0543 15.8691 15.6962 15.013L18.0403 11.8873C18.495 11.2815 18.4231 10.3932 17.8124 9.88894ZM5.94563 16.8684L5.30273 17.19L2.8096 12.204L3.45283 11.8824C3.69405 11.762 3.987 11.8593 4.10778 12.1009L6.16406 16.2134C6.28451 16.4546 6.18685 16.7476 5.94563 16.8684ZM17.259 11.3014L14.915 14.427C14.4563 15.0386 13.7262 15.4035 12.9619 15.4035H6.85092L5.02117 11.7438L5.9453 10.9303C6.86488 10.1214 8.25161 10.1214 9.17118 10.9303C9.71284 11.4072 10.0497 11.4974 10.4007 11.4974H12.9618C13.2311 11.4974 13.4501 11.7164 13.4501 11.9856C13.4501 12.2548 13.231 12.4739 12.9618 12.4739H10.4681C10.1985 12.4739 9.97979 12.6927 9.97979 12.9622C9.97979 13.2317 10.1985 13.4504 10.4681 13.4504H13.289C13.6943 13.4504 14.0849 13.2805 14.3609 12.984L16.5107 10.6764C16.7073 10.4654 17.0087 10.483 17.1936 10.6448C17.3869 10.8141 17.4078 11.1035 17.259 11.3014Z" fill="#122932"/>
<path d="M11.9332 4.99868C12.2675 4.64811 12.4736 4.17416 12.4736 3.65232C12.4736 2.57746 11.6051 1.66667 10.5205 1.66667C9.44401 1.66667 8.53485 2.57583 8.53485 3.65232C8.53485 4.15817 8.7331 4.6357 9.09311 5.00258C8.20023 5.50323 7.5583 6.46415 7.5583 7.59109V8.07937C7.5583 8.34888 7.77706 8.56764 8.04658 8.56764H12.9619C13.2314 8.56764 13.4502 8.34888 13.4502 8.07937V7.59109C13.4501 6.48629 12.8425 5.51039 11.9332 4.99868ZM10.5205 2.64325C11.0498 2.64325 11.497 3.10548 11.497 3.65235C11.497 4.19076 11.0589 4.6289 10.5205 4.6289C9.97363 4.6289 9.5114 4.18164 9.5114 3.65235C9.5114 3.11492 9.98307 2.64325 10.5205 2.64325ZM8.53485 7.59109C8.53485 6.51461 9.44401 5.60545 10.5205 5.60545C11.5973 5.60545 12.4736 6.49605 12.4736 7.59109H8.53485Z" fill="#122932"/>
</svg>
